<svg width="32" height="32" viewBox="0 0 32 32" fill="none" xmlns="http://www.w3.org/2000/svg">
<g clip-path="url(#clip0_2_301)">
<path d="M24.6666 13.6733C24.6666 13.7329 24.6653 13.792 24.6626 13.8507C24.2863 13.5168 23.8004 13.3327 23.2973 13.3333C23.0813 13.3333 22.8711 13.3662 22.6666 13.432V7.66666C22.6666 7.40144 22.5613 7.14709 22.3737 6.95955C22.1862 6.77201 21.9318 6.66666 21.6666 6.66666H10.3333C10.0681 6.66666 9.81372 6.77201 9.62618 6.95955C9.43865 7.14709 9.33329 7.40144 9.33329 7.66666V13.6733C9.33329 14.2253 9.78129 14.6733 10.3333 14.6733H21.368L21.3546 14.7067L21.3506 14.7227L20.7506 16.568L20.7373 16.6027L20.712 16.6733H10.3333C9.53764 16.6733 8.77458 16.3573 8.21197 15.7946C7.64936 15.232 7.33329 14.469 7.33329 13.6733V7.66666C7.33329 6.87101 7.64936 6.10795 8.21197 5.54534C8.77458 4.98273 9.53764 4.66666 10.3333 4.66666H15V3.66666C15 3.42481 15.0877 3.19117 15.2468 3.00902C15.4059 2.82687 15.6256 2.70856 15.8653 2.67599L16 2.66666C16.2418 2.66671 16.4754 2.75441 16.6576 2.91351C16.8397 3.07262 16.9581 3.29234 16.9906 3.53199L17 3.66666L16.9986 4.66666H21.6653C22.4609 4.66666 23.224 4.98273 23.7866 5.54534C24.3492 6.10795 24.6653 6.87101 24.6653 7.66666L24.6666 13.6733ZM17.3906 18.7147L17.54 18.6667H8.33862C7.54297 18.6667 6.77991 18.9827 6.2173 19.5453C5.65469 20.1079 5.33862 20.871 5.33862 21.6667V22.876C5.33849 23.5961 5.4939 24.3077 5.79421 24.9621C6.09452 25.6166 6.53265 26.1985 7.07862 26.668C9.16262 28.4587 12.148 29.3347 16 29.3347C18.768 29.3347 21.0893 28.8827 22.9506 27.964C22.5968 27.8963 22.2668 27.7372 21.9934 27.5026C21.72 27.2681 21.5127 26.9661 21.392 26.6267L21.3866 26.6107L21.3466 26.4867C19.8986 27.0493 18.12 27.3347 16 27.3347C12.588 27.3347 10.06 26.5933 8.38262 25.1507C8.0551 24.869 7.79227 24.52 7.61208 24.1274C7.4319 23.7348 7.33862 23.3079 7.33862 22.876V21.6667C7.33862 21.4014 7.44398 21.1471 7.63152 20.9595C7.81905 20.772 8.07341 20.6667 8.33862 20.6667H16V20.6627C15.9993 20.2364 16.1312 19.8205 16.3775 19.4727C16.6239 19.1248 16.9723 18.8622 17.3746 18.7213L17.3906 18.7147ZM14.6653 10.3333C14.6716 10.1106 14.6332 9.88882 14.5523 9.68119C14.4714 9.47355 14.3497 9.28424 14.1943 9.12446C14.039 8.96468 13.8532 8.83767 13.648 8.75094C13.4427 8.66421 13.2221 8.61952 12.9993 8.61952C12.7765 8.61952 12.5559 8.66421 12.3506 8.75094C12.1453 8.83767 11.9596 8.96468 11.8042 9.12446C11.6489 9.28424 11.5272 9.47355 11.4463 9.68119C11.3654 9.88882 11.327 10.1106 11.3333 10.3333C11.3456 10.767 11.5265 11.1788 11.8376 11.4812C12.1487 11.7837 12.5654 11.9529 12.9993 11.9529C13.4332 11.9529 13.8499 11.7837 14.161 11.4812C14.4721 11.1788 14.653 10.767 14.6653 10.3333ZM18.9893 8.66666C19.212 8.66035 19.4338 8.69878 19.6414 8.77967C19.8491 8.86056 20.0384 8.98227 20.1982 9.1376C20.3579 9.29292 20.4849 9.47871 20.5717 9.68398C20.6584 9.88924 20.7031 10.1098 20.7031 10.3327C20.7031 10.5555 20.6584 10.7761 20.5717 10.9813C20.4849 11.1866 20.3579 11.3724 20.1982 11.5277C20.0384 11.683 19.8491 11.8047 19.6414 11.8856C19.4338 11.9665 19.212 12.005 18.9893 11.9987C18.5556 11.9864 18.1438 11.8055 17.8414 11.4944C17.5389 11.1833 17.3698 10.7665 17.3698 10.3327C17.3698 9.89879 17.5389 9.48203 17.8414 9.17093C18.1438 8.85983 18.5556 8.67893 18.9893 8.66666ZM21.452 23.216C20.9928 22.6222 20.367 22.1789 19.6546 21.9427L17.8186 21.3453C17.6776 21.2951 17.5555 21.2025 17.4692 21.0801C17.3829 20.9578 17.3365 20.8117 17.3365 20.662C17.3365 20.5123 17.3829 20.3662 17.4692 20.2438C17.5555 20.1215 17.6776 20.0289 17.8186 19.9787L19.6546 19.3813C20.1986 19.1937 20.6926 18.8847 21.0992 18.4776C21.5058 18.0705 21.8143 17.5761 22.0013 17.032L22.0146 16.9867L22.6133 15.1507C22.6632 15.0091 22.7558 14.8866 22.8783 14.7999C23.0008 14.7132 23.1472 14.6667 23.2973 14.6667C23.4474 14.6667 23.5937 14.7132 23.7162 14.7999C23.8388 14.8866 23.9314 15.0091 23.9813 15.1507L24.5786 16.9867C24.7648 17.5446 25.0784 18.0514 25.4945 18.4671C25.9106 18.8828 26.4178 19.1958 26.976 19.3813L28.8133 19.9787L28.8493 19.988C28.9903 20.0382 29.1124 20.1308 29.1987 20.2532C29.285 20.3755 29.3314 20.5216 29.3314 20.6713C29.3314 20.8211 29.285 20.9671 29.1987 21.0895C29.1124 21.2118 28.9903 21.3044 28.8493 21.3547L27.012 21.952C26.4538 22.1375 25.9466 22.4506 25.5305 22.8662C25.1144 23.2819 24.8008 23.7887 24.6146 24.3467L24.0186 26.1827C23.9678 26.3241 23.8747 26.4465 23.752 26.5333C23.6604 26.598 23.5551 26.6407 23.4443 26.6578C23.3335 26.675 23.2202 26.6663 23.1134 26.6323C23.0065 26.5983 22.909 26.54 22.8285 26.462C22.748 26.384 22.6866 26.2884 22.6493 26.1827L22.052 24.3467C21.9185 23.938 21.7156 23.5555 21.452 23.216ZM31.7106 28.284L30.6906 27.9533C30.3806 27.85 30.0989 27.676 29.8677 27.4451C29.6365 27.2141 29.4622 26.9326 29.3586 26.6227L29.0266 25.6027C28.999 25.5239 28.9476 25.4557 28.8795 25.4074C28.8115 25.3591 28.7301 25.3332 28.6466 25.3332C28.5632 25.3332 28.4818 25.3591 28.4137 25.4074C28.3456 25.4557 28.2942 25.5239 28.2666 25.6027L27.9346 26.6213C27.8333 26.9292 27.6624 27.2096 27.4351 27.4406C27.2077 27.6716 26.9302 27.8471 26.624 27.9533L25.6026 28.284C25.5239 28.3116 25.4556 28.363 25.4074 28.4311C25.3591 28.4991 25.3331 28.5805 25.3331 28.664C25.3331 28.7474 25.3591 28.8288 25.4074 28.8969C25.4556 28.965 25.5239 29.0164 25.6026 29.044L26.624 29.376C26.9345 29.4798 27.2166 29.6546 27.4479 29.8866C27.6791 30.1185 27.8531 30.4011 27.956 30.712L28.2866 31.7307C28.3148 31.8088 28.3665 31.8764 28.4345 31.9241C28.5025 31.9719 28.5835 31.9975 28.6666 31.9975C28.7497 31.9975 28.8308 31.9719 28.8988 31.9241C28.9668 31.8764 29.0184 31.8088 29.0466 31.7307L29.38 30.712C29.4833 30.402 29.6573 30.1202 29.8882 29.8891C30.1192 29.6579 30.4007 29.4836 30.7106 29.38L31.732 29.0493C31.8107 29.0217 31.8789 28.9703 31.9272 28.9022C31.9755 28.8342 32.0014 28.7528 32.0014 28.6693C32.0014 28.5859 31.9755 28.5045 31.9272 28.4364C31.8789 28.3683 31.8107 28.3169 31.732 28.2893L31.7106 28.284Z" fill="white"/>
</g>
<defs>
<clipPath id="clip0_2_301">
<rect width="32" height="32" fill="white"/>
</clipPath>
</defs>
</svg>
